<svg xmlns="http://www.w3.org/2000/svg" width="1647" height="1951" version="1.0"><path d="M816 1940.5c-16.1-2.8-35.1-11.7-57.5-26.8-3.3-2.2-15-10-26-17.4-11-7.3-22.2-14.9-25-16.8-2.7-1.9-8.7-5.9-13.1-8.7-9.5-6.2-21.5-14.2-55.9-37.6-13.7-9.4-32-21.8-40.5-27.6-8.5-5.7-19.5-13.3-24.5-16.7-4.9-3.4-13.5-9.3-19-13-5.5-3.8-14.5-10-20-13.9-5.5-3.8-10.7-7.3-11.5-7.7-.8-.3-2.4-1.4-3.5-2.3-1.8-1.6-13.4-9.5-34.3-23.7-4.2-2.9-8.2-5.6-8.7-6-3.4-2.6-10.9-8-16.5-11.8-3.6-2.4-10.8-7.4-16-11-7.7-5.2-32.2-22.4-41.5-29.1-1.1-.7-4.2-2.8-7-4.6-2.7-1.8-5.9-4.1-6.9-5-1.1-1-2.8-2-3.8-2.4-1-.3-1.8-.9-1.8-1.3s-2.8-2.6-6.2-4.9c-9.8-6.5-10.5-7-23.8-17.6-24.5-19.6-39.1-33.1-54.9-50.6-26.3-29.3-45.7-62.6-60.7-104-1.9-5.2-3.8-10.4-4.3-11.5-1.4-3-11.3-34.1-15.5-48.5-2-6.9-8.3-31.2-14-54-5.7-22.8-10.7-42.2-11-43-.3-.8-.8-2.6-1-4-.3-1.4-1.6-6.8-3.1-12-1.4-5.2-4.1-15.8-6-23.5-1.9-7.7-4-15.5-4.6-17.3-.6-1.8-1.2-4.3-1.5-5.6-.5-2.9-7.5-30.3-11-43.4-1.4-5.1-2.7-10-2.9-11-.2-.9-1.1-4.4-2-7.7-1-3.3-2.3-8.5-3-11.5-1.1-5.2-4.1-15.7-5.3-19-.3-.8-.7-2.5-.8-3.7-.2-1.2-.8-3.1-1.3-4.2-.6-1.1-1.1-3-1.1-4.2 0-1.2-.4-3.6-1-5.3-.5-1.7-2.3-8.7-4-15.6-2.9-11.7-5.6-22.1-9.5-36.5-.9-3.3-2.8-10.3-4.2-15.5-1.4-5.2-2.9-11.1-3.5-13-.5-1.9-1.3-5.7-1.8-8.5-.5-2.7-1.4-5.9-1.9-7-.5-1.1-1.9-6-3-11-2.5-10.2-4-15.9-5.2-19.5-.4-1.4-1.1-4.1-1.5-6-.4-1.9-.8-3.7-.9-4-.1-.3-.5-2.1-.9-4s-2.1-8.2-3.8-14c-1.6-5.8-3.3-12.1-3.7-14-.5-1.9-2-8-3.5-13.5s-4.8-17.8-7.2-27.4c-2.5-9.6-4.7-17.8-4.9-18.2-.3-.4-1.1-3.5-1.9-7-2.8-13-9.1-37.4-13-50.9-1.4-4.7-4.1-14.8-6.1-22.5-1.9-7.7-5.3-20.7-7.5-29-2.3-8.2-4.9-18.4-5.9-22.5-2.7-10.8-9.7-37.5-13.6-51.5-1.8-6.6-3.5-13.1-3.8-14.5-.7-3.7-7.8-30.7-13.6-52.3-2.8-10.4-5.1-19.6-5.1-20.6 0-.9-.5-2.2-1.1-2.8-3-3-2.8-3.4 37.4-112.5l16.6-44.7-5-13.8c-8.2-22.5-32.7-95.7-36.8-110.3-4.8-16.4-9.4-35.7-12-50.5C4 245.4 2 199.2 9.5 143.5c5.3-39.2 13.4-57.7 33.8-77.2 18.9-18 33.3-25.8 56.7-30.8 11.6-2.4 13.3-2.5 47.8-2.5 36 .1 47.9.7 65.2 3.6 11.4 1.9 30.8 7.3 40.5 11.4 3.9 1.6 11.5 4.7 17 6.9 11.4 4.5 47 21.8 71.7 34.9 22.2 11.8 47.6 26.7 68.3 40.1 13.8 8.9 17.2 10.7 18.1 9.6.6-.8 4.7-5.6 9.2-10.7 7.7-8.9 32.9-37.8 40.2-46.4 10.9-12.6 40.2-45.8 45.2-51.2 3.2-3.5 7-8.1 8.5-10.3l2.6-3.9h584.3l18.4 21.2c10.2 11.6 20 22.7 21.8 24.7 1.9 2 5 5.6 7 8.1 2.1 2.5 10.8 12.6 19.6 22.5 19.1 21.7 22.1 25.2 45.5 52 10.1 11.6 19.9 22.7 21.8 24.8l3.4 3.7 4.2-3.4c15.8-12.8 60.8-39.2 97.6-57.2 13.2-6.5 44.9-18.7 56.6-21.7 23.2-6.1 65.2-15.2 79.5-17.3 6.3-.9 18.3-1.7 26.5-1.8 13.4-.1 16.3.2 27 2.8 16.2 3.8 38.4 13.1 49.3 20.5 10.9 7.4 15.9 13.6 25.9 31.9 6.3 11.5 13.1 34.2 17 57.2 1.6 9.1 1.8 16.7 1.7 58 0 40.6-.4 51.1-2.3 72.5-8.6 96.3-16.5 153.7-30.7 222.6l-2.8 13.5 8.1 22.5c7.1 19.3 13.1 36.2 22.2 62.4 2.3 6.5 2.6 9.5 1.1 9.5-.5 0-1 1-1 2.3 0 1.3-2.3 11.1-5.1 21.8-2.8 10.7-6.1 23.5-7.4 28.4-1.2 5-3.2 12.4-4.3 16.5-1.2 4.2-2.3 8.9-2.6 10.5-.3 1.7-1.5 5.9-2.6 9.5-1.1 3.6-2 7.4-2 8.6 0 1.1-.3 2.4-.7 2.8-.7.7-2.4 6.5-4.2 14.1-.5 2.2-2.1 8.5-3.6 14s-3.3 12.7-4 16c-.7 3.3-2.9 11.9-4.9 19-1.9 7.2-3.7 14.1-4 15.5-.3 1.4-2.4 9.5-4.7 18-2.3 8.5-4.5 17.4-5 19.8-.5 2.4-1.1 4.7-1.3 5.1-1.1 1.8-13.6 49.9-13.6 52.3 0 1-.4 2.6-1 3.6-.8 1.5-6.9 24.7-9 34.2-.4 1.9-2.2 8.9-4 15.5-1.8 6.6-3.4 13.1-3.7 14.5-.2 1.4-.8 3.4-1.3 4.5-1.2 2.8-5 16.9-6.4 23.5-.6 3-1.4 6-1.8 6.5-.3.6-.9 2.8-1.3 5-.8 4.6-5.4 23.3-6.2 25.5-.4.8-1.2 3.8-1.9 6.5-.6 2.8-2.5 10.2-4.2 16.5-3.4 12.5-11.8 44.3-13.2 50-.5 1.9-1.2 4.9-1.5 6.5-.4 1.7-1 3.9-1.4 5-.7 1.9-6.3 23.6-8.1 31.5-.4 1.9-1.9 7.8-3.3 13s-4 14.9-5.7 21.5c-1.7 6.6-3.5 13.1-3.9 14.5-.5 1.4-1.5 5.2-2.2 8.5-.7 3.3-1.7 6.6-2.2 7.3-.5.7-.7 1.5-.4 1.8.2.3-.2 2.9-1 5.7-2.8 10.1-5.2 19.5-12.7 48.7-14.5 57.1-20.3 79.5-20.9 81-.3.8-1.5 5.3-2.7 10-7.2 28.5-13.6 51.8-17.3 63-1.4 4.1-4 12-5.7 17.5-1.8 5.5-3.8 11.4-4.5 13-.7 1.7-3.5 8.6-6.1 15.5-5.4 14-16.7 37.4-23.9 49.5-13.1 22.1-29.3 42.2-50.6 63-20.9 20.3-38.1 34.3-66.9 54.4-35.3 24.7-63.8 44.6-69 48.5-2.5 1.8-9 6.4-14.5 10.1-5.5 3.8-15.2 10.4-21.5 14.8-6.3 4.3-15.8 10.7-21 14.3-5.2 3.6-14.5 9.9-20.6 14.2-26.3 18.1-50.8 34.9-55.8 38.2-3 1.9-9.6 6.4-14.8 9.9-44.2 30.6-65.1 44.8-94.8 64.4-6.9 4.5-13.8 9.2-15.5 10.4-1.6 1.2-7.5 5-13 8.6-5.5 3.6-15.2 10.2-21.5 14.6-30.2 21-50.7 31.4-69.3 35.1-11.3 2.3-13.3 2.3-23.7.5zm-216.2-345.6c2-3.4 8-12.7 13.3-20.7 5.3-8.1 14.3-21.9 20.1-30.7 5.8-8.8 11.8-18 13.4-20.3 1.6-2.4 4.9-7.5 7.4-11.2 19.7-29.9 37.8-54.7 44.6-61.2 2.1-2.1 4.8-3.8 5.9-3.8 3.4 0 6.9 3 24.8 21.1 15.1 15.2 53.5 52.6 75.5 73.4 7 6.6 10.2 8.4 6.4 3.4-1.1-1.3-4.3-6.9-7.2-12.4-2.9-5.5-5.6-10.4-6-11-.4-.5-1.9-3-3.2-5.5-11.3-20.4-23.4-41.5-36.6-63.5-20.3-34.1-26-39.8-44.7-45-18.4-5.1-76.4-23.8-82-26.4-1.1-.5-6.3-2.4-11.5-4.2-5.2-1.7-14.9-5.3-21.5-8-33.8-13.6-48.1-19.9-77.5-34.6-38.8-19.4-56.3-29.4-85.5-49-19.8-13.3-33.1-23-40.5-29.3-2.9-2.5-6.4-5.4-7.8-6.5-1.4-1.1-5.2-4.5-8.5-7.5-3.2-3-6.3-5.6-6.7-5.8-.8-.3-5.7 9.3-8.5 16.8-1 2.5-2.3 5.9-3 7.5-2.9 7.2-13.3 39.8-16.6 52-2.7 10.4-3.2 19.8-1.3 25.3 3 8.7 19.1 31.3 39.9 56.1 30.8 36.6 54.9 62.6 101.5 109.2 72.5 72.6 100.8 97.7 110.3 97.9 1.1 0 3.1-2.2 5.5-6.1zm484.8 2.5c2.3-1.4 5.3-3.5 6.6-4.7 1.2-1.2 4.1-3.6 6.3-5.2 5.3-3.9 16.1-14.1 54.4-51.4 58.6-57.1 100.3-100.6 131.9-138 16.1-19.1 37.3-47.9 41.9-57.1 5.9-11.6 3.5-23.2-14.8-74-2.7-7.4-5.3-14.4-5.8-15.5-.5-1.1-2.2-4.9-3.7-8.5-1.5-3.6-2.9-6.7-3.1-6.9-.1-.2-3.5 2.6-7.6 6.1-29.7 26.7-57.3 45.9-103.2 71.8-7.1 4-15.6 8.8-18.8 10.7-3.2 1.8-6 3.3-6.3 3.3-.3 0-7.2 3.3-15.2 7.4-32 16-73.6 33.5-110.2 46.1-5.8 2-11.4 4-12.5 4.5-1.9.9-11.4 3.9-57 18-11 3.4-22.2 7.3-24.9 8.7-7.8 4-15.4 12.4-23.1 25.8-3.8 6.6-12.1 20.6-18.4 31-12.2 20.4-13.1 21.9-18.7 32.2-2 3.7-7.3 13.3-11.8 21.3-15.8 28.1-15.8 28.1-5.1 18 12.3-11.6 46-44.5 46.7-45.5.4-.6 11.7-11.8 25.2-24.8 18.8-18.2 25.1-23.7 27-23.7 3.6 0 8.3 4.5 18.3 17.8 10.5 13.9 15.1 20.6 56 82.3 7.1 10.8 13.9 20.9 15 22.5 1.2 1.6 5.4 8.1 9.3 14.4 4 6.3 8.4 12.8 9.9 14.3 3 3.2 4.9 3.1 11.7-.9zM863 1302.9c22.9-2.1 48.9-6.8 67.6-12.4 4.9-1.5 10.9-3.3 13.4-4 6.1-1.7 28.3-9.8 34.5-12.5 13.2-5.7 27.3-12.6 34-16.4 39.5-22.9 63.1-41.7 81.9-65.1 9.7-12 14.7-20.3 21.9-36.5 13.6-30.2 12.8-70.4-1.9-101.6-4.4-9.3-13.3-24.9-17.4-30.6-4.4-6-4-7 1.8-5.3 7 2.2 31.5 6.3 48.6 8.1 24.8 2.7 75.1 2.4 99.6-.6 30.4-3.8 53.7-9.5 79.8-19.6 10.9-4.2 28.2-12.8 36.7-18.3 25-16.1 49.6-42.5 64.6-69.7 3.5-6.3 6.9-12.2 7.5-13.1.9-1.3 1.8-.3 5.7 6.1 2.6 4.2 4.7 7.9 4.7 8.2 0 .3 1.5 2.8 3.3 5.7 1.7 2.9 4 6.9 5.1 8.9 2.3 4.5 1.9 5.4-6 18.9-3 5-5.4 9.3-5.4 9.5 0 .3-.8 1.7-1.9 3.2-1 1.5-3.6 5.6-5.8 9.2-15.9 25.9-15.2 24.9-39.2 58.4-16.4 22.9-62.3 74.2-88.8 99.2-43.2 40.8-98.3 80.8-147.8 107.5-3.8 2.1-9.5 5.1-12.5 6.7-14 7.5-40.5 20.2-42.3 20.2-.6 0-.8.3-.4.6 1.2 1.2 34.5-10.5 68.7-24.1 32.5-13 82.4-36.9 112-53.9 6.6-3.8 15.3-8.7 21.5-12 1.1-.7 3.8-2.3 6-3.7 2.2-1.4 6.9-4.3 10.5-6.4 3.6-2.2 10.8-6.6 16-10 5.2-3.4 11.7-7.5 14.3-9.1 2.6-1.6 7.6-5 11-7.5 3.4-2.5 11.2-8.1 17.2-12.4 37.4-26.8 77.1-61.4 103.7-90.4 7.3-7.9 9.1-11.4 4.7-9-3.7 1.9-18.1 5.9-26.8 7.3-10.5 1.8-28.6 3-30 2.1-.7-.3 6.5-8.1 16.8-18.3 18-17.8 30.3-31.2 39.7-43.2 5.8-7.4 18.4-24.8 18.4-25.4 0-.2 2.5-4.1 5.5-8.7 6.8-10.2 16.3-29.5 20-40.4 3-8.9 3.3-7-4.2-23.2-1.8-4-3.3-7.5-3.3-7.7 0-.5-1-2.8-7.6-17.3-4.9-10.9-7.5-16.3-15.4-32.8-4.5-9.3-9.3-19.5-10.7-22.5-1.4-3-6.1-13.1-10.5-22.3-6.7-14.3-7.9-17.4-7.4-20.5 7.5-51.1 10.1-56.9 30.1-68.2 5.3-3 10.9-6.7 12.4-8.2 4.1-4.2 7-10.7 8.6-19.3 1.7-8.6 2.6-43.1 1.6-59.6l-.6-10.6-6.2-6.7c-3.5-3.7-6.3-7.1-6.3-7.6s.7-4.2 1.6-8.2l1.5-7.3-4.3-3.9c-2.4-2.1-6.6-4.9-9.3-6.1-4.4-2-22.3-6.7-43.8-11.7-4.4-1-5.7-1.7-5.3-2.8.2-.8 3-8 6.1-16 9.6-24.4 19.5-56.8 24.4-80.1 3.2-15.1 4.1-20.5 6.8-42.9 1.2-9.9.8-51.4-.6-61-2-13.8-6.8-31.5-11.3-41-6-12.8-19.8-31-27.5-36.2-22.4-15.2-38.1-19.5-68.1-18.5-25.2.8-49.3 5.9-82.2 17.3-23.9 8.2-60.1 25.1-86 40-19.2 11.1-49.9 31-64.5 41.8-7 5.2-9.6 6.6-11.5 6.2-1.4-.2-7.7-2.9-14-5.9-14.4-6.9-35.2-16-43.9-19.3-26.1-9.8-28.4-10.6-52.1-17.8-75.1-22.9-162.7-32.7-242.5-27.1-21.6 1.5-23.2 1.7-52 6-70.1 10.6-130.8 29.1-192.2 58.6-6.8 3.3-13 5.9-13.9 5.9-1 0-4-1.7-6.8-3.8-23.3-17.5-66.7-44.5-91.6-57.1-6.9-3.5-12.9-6.7-13.5-7.1-4.5-3.3-43.9-18.9-61-24.1-8.8-2.7-17.3-5.4-19-5.9-5.1-1.6-22.4-4.8-35-6.6-15.6-2.1-40.5-1.4-51 1.5-19.4 5.3-30.2 11.5-42.3 24-10.8 11.3-16.5 20.4-21.9 35.1-6.6 17.8-9.1 33.1-9.9 60-1.4 46.5 9.7 101.4 32.1 158 3.5 9 6.1 16.7 5.7 17.1-.4.3-7.4 2.3-15.7 4.3-30.6 7.6-36.3 9.7-43.6 16.3-7.2 6.5-10.3 14.7-11.9 31.5-1.4 13.6-1.4 58.4-.1 67.5 2.4 16.1 7.9 24.4 21 31.2 9.5 4.9 13.1 7.8 17.1 13.6 5.5 8 7.4 15.1 12 45.4 1.2 8.2 1.6 13.1 1 14.7-1.5 3.9-4.9 11.2-11.5 24.9-9.1 18.8-17.8 36.9-21.5 45-1.7 3.9-4.5 9.7-6 13-9.5 20.2-20.3 44.6-21.2 48-.9 3.7-.6 4.9 4.7 17.5 7 16.5 9.1 20.8 16.8 33.5 17.3 28.6 45.8 62 74.5 87.4 3.9 3.5 7.2 6.8 7.2 7.4 0 1.4-21.5-.1-34-2.4-5.8-1.1-14-3.1-18.3-4.5-4.3-1.5-8.1-2.3-8.4-2-.7.7 1.5 3.2 18.7 20.9 32.4 33.5 83.3 74.1 133 106.2 11.5 7.4 26.1 16.5 26.5 16.5.3 0 2.9 1.6 5.9 3.5 3 1.9 5.7 3.5 5.9 3.5.3 0 3.4 1.7 6.8 3.8 3.5 2.2 12.7 7.2 20.4 11.2 7.7 4 16.9 8.9 20.5 10.8 3.6 1.9 9 4.8 12.1 6.3 4.8 2.3 9.3 4.5 26.4 12.4 7.9 3.7 16.5 7.5 16.9 7.5.3 0 3.5 1.4 7.3 3.1 10.1 4.5 10.3 4.6 16.3 7 3 1.2 7 2.8 8.8 3.6 6.4 2.8 21.8 8.5 29.7 11 4.4 1.4 12.1 4 17 5.8 15.8 5.7 14.5 4.8-9-6.8-30.5-15.1-52.1-27.6-80.3-46.5-12.9-8.5-23.9-16-24.5-16.7-.7-.6-4.1-3.1-7.7-5.5-7.5-5-26-19.7-44-34.9-22.9-19.3-62.3-59.8-84.7-87.1-3.4-4.1-9.9-12.1-14.5-17.6-20.8-25.4-50.5-69.6-64.1-95.4-2.1-4.1-4.8-8.9-5.9-10.7l-1.9-3.2 5.4-9.3c3-5.1 7.3-12.5 9.6-16.5s4.5-7.4 4.9-7.7c.4-.2 3.2 3.9 6.2 9.2 6.7 12 14.1 22.9 24.1 35.2 16.8 20.8 34.2 34.7 59.5 47.6 24.6 12.5 50.3 20.7 80.9 25.8 15.2 2.6 16.9 2.8 33 4.6 22.1 2.5 70.5 2.2 91-.5 1.7-.3 6.8-.9 11.5-1.5 12.4-1.6 24.9-3.9 29.9-5.6 7-2.2 7.5-1.9 4.3 2.9-3.1 4.5-14.2 23.6-14.2 24.3 0 .3-1.4 3.3-3 6.6-11.7 23.5-15.2 52.6-9.6 80.3.8 4.3 2.7 11.1 3.6 13 .5 1.1 2.1 5.1 3.6 9 16.5 42.7 59.9 81.9 124.4 112.2 3 1.5 6.7 3.2 8.1 4 5 2.4 21.4 8.5 36.4 13.4 46.1 15.1 98.1 21.7 140.5 17.8z"/><path d="M738.4 1213c-11.9-1.7-19.2-13.8-14.6-24.3 5.2-11.7 35.7-27.1 76.7-38.8 7.7-2.2 14.3-4.3 14.8-4.8.9-.9.6-52.6-.3-53.5-.3-.3-4.1-1.2-8.3-2.1-26.7-5.5-56.3-23.9-71.4-44.3-10.6-14.3-14.8-25.6-15.9-42.7-1.1-17 4.2-32.4 15.7-44.9 14.3-15.6 34.7-25.4 63.9-30.8 10.8-2 15.7-2.3 36-2.3 25.5.1 34.1 1.1 53.6 6.5 40.7 11.2 64.2 38.2 62.1 71.4-1.3 20.9-8.9 37.1-24.6 52.7-10.3 10.2-17.9 15.8-30.2 22.3-9.9 5.2-28.3 11.9-36 13.1-3.1.5-3.7 1-4.7 4.4-1.3 4.1-1.7 39.7-.5 44 .6 2.3.7 2.3 9.2 1.7 21.8-1.7 47 3.3 70.1 13.7 10.8 4.9 14.5 10.2 13.8 19.8-.8 10.7-9.2 17.7-19.7 16.5-3.1-.4-6.5-1.3-7.6-2-2.9-1.9-15.5-6.3-23.8-8.4-11.6-2.8-46.2-2.4-62.7.6-28.8 5.4-59.8 16-77.5 26.5-9.9 5.9-12 6.5-18.1 5.7zM856 982.9c17.8-2.1 29.7-6.8 33.5-13.2 1.6-2.7 1.6-3-.8-6.6-3-4.5-12.5-9.5-22.4-11.7-9.3-2.1-39.4-3-50.8-1.5-9.3 1.2-21 4.3-25.7 6.7-1.5.8-4.4 2.8-6.3 4.5-11.4 10 5.9 19.9 39.5 22.7 10.3.8 20.3.6 33-.9z"/><path d="M451 1004c-57.8-4.8-101-17-132.5-37.4-26.7-17.4-49.4-44.6-65.2-78.1-1.3-2.7-2.8-5.8-3.3-6.7-1-1.7-5-12.8-7.6-20.8-.8-2.5-1.9-5.9-2.5-7.7-1.3-4-5.3-19.5-8.5-32.8-2.7-11.4-8-41.5-11.9-68-3.1-20.7-7.7-44-10-50.5-5.1-14.2-13.7-24.5-27.1-32.3-4.4-2.6-9-5.7-10.1-6.9-4.3-4.6-4.7-7.1-5.1-35.5-.4-30.6.6-42.3 4-48.6 2.2-4 2.9-4.4 12.3-7.6 16.2-5.4 33.9-9.6 85-20 18.4-3.8 49.9-8.6 79-12.1 9.4-1.1 20.3-2.5 24.4-3 28.4-3.9 92.5-6.3 130.6-4.9 32.7 1.2 47.7 2.7 89.2 8.9 38.6 5.8 68.8 14.1 118.3 32.3 48.9 18 66.2 22.8 95.5 26.3 16.9 2 53 1.5 69.5-1 21-3.2 51.9-12.3 87.7-26 46.4-17.7 79.5-26.3 128.8-33.5 48.6-7.2 99-9.1 159.5-6 38.4 1.9 106 10.4 150.5 19 38.7 7.4 69.4 14.5 84.5 19.6l11.5 3.8 2.4 5c2 4.2 2.5 7.3 3.1 19 1 18.6.4 49.7-1.1 56.5-1.2 5.8-4.6 10-10.5 13-24.4 12.4-32.8 28.4-39.4 75.5-1.8 12.4-7.8 50.4-9 56-.5 2.8-1.9 9.6-3 15.2-1.1 5.7-2.7 12.6-3.4 15.5-.8 2.9-2.4 8.9-3.6 13.3-8.9 33.4-25 66.3-43.8 89.7-9.5 11.6-24.3 25.1-36.9 33.3-6.2 4.1-11.5 7.5-11.7 7.5-.2 0-4.6 2-9.7 4.4-13.6 6.4-20.7 9-36.4 13.4-58.1 16.4-133.2 17.3-193.6 2.2-13.1-3.3-32.4-9.3-38.4-12.1-2.2-1-7.4-3.3-11.5-5.1-6.6-3-16.8-8.2-24.8-12.8-15-8.6-39.6-29.8-53.3-46-6-7-20.2-26.3-23.6-32-1.1-1.9-5-8.3-8.5-14.2-14.6-24-29.6-58.1-39.7-89.8-15.4-48.6-18.2-56.5-22.8-65-11.1-19.8-35.3-29.2-57.8-22.3-13.5 4.2-24.6 13.5-30.2 25.5-4.6 9.7-5.7 12.7-13.3 36.8-15.9 49.8-21.9 65.6-35.6 92.5-44.1 87.2-98.7 130.4-186.9 147.8-9.9 2-24.1 4.3-31.5 5.2-15.9 1.9-57.1 2.7-72 1.5zm68-42.3c23.9-2.9 34.7-5.2 55-11.9 55.4-18 88.9-46.2 118.7-99.8 13.1-23.7 22.8-47.4 29.2-72 12.7-48.2 15.5-89.1 7.9-113.9-10.2-33.1-39.4-56.1-89.8-70.6-58.1-16.7-143.2-23.1-219-16.5-53.6 4.7-90.1 14.5-111 30-25.6 19-38.9 46.3-43.1 88.5-3.2 32.8.2 82.8 8.2 121 5.8 27.4 19 60.1 32.2 79.5 4.1 6.1 16.6 20.8 20.8 24.5 14.7 13.1 32.3 22.8 54.2 30 19.1 6.3 33.1 8.8 70.7 12.8 8.2.9 54.5-.3 66-1.6zm706.3.8c.6-.2 4.8-.6 9.2-1 25.8-1.8 56.6-10 77-20.2 19-9.6 37.2-25.6 50.2-44.1 9.6-13.8 23.6-43.1 27.9-58.4 5.7-20.2 10.3-46.1 12.9-71.7 2-20 2-61.6.1-77.1-4.2-33.4-13.4-54.9-31.3-72.8-28.5-28.5-71.2-39.4-167.8-42.7-32.6-1.1-83.4 2.2-116.9 7.6-74.8 12-111.8 28.1-134.7 58.4-4.9 6.4-9 15.5-12.6 27.6-2.6 9.1-2.7 10.2-2.8 32.4 0 20.9.3 24.5 2.8 38.8 10.7 60.3 34.1 113.8 66.7 152.9 15.3 18.4 35.7 34.1 57.7 44.3 34.9 16.4 65.4 23.9 105.3 26.1 6.3.4 11.7.9 12 1.2.6.5 42.4-.7 44.3-1.3zM239.5 626c5.4-1.7 10.5-7.2 10.5-11.4 0-4.1-4.7-8.8-11-11.2-6.4-2.4-24.6-2.4-31.5 0-7.1 2.5-10.5 6-10.5 10.7 0 6.6 4.6 10.2 16.5 13.3 3.4.8 21.8-.2 26-1.4zm1221.3.5c2.9-.9 6.8-3 8.7-4.6 6.9-6.1 3.6-15-6.8-18.6-3.9-1.3-8.1-1.7-16.7-1.7-9.8 0-12.3.4-16.8 2.4-6.2 2.7-9.2 6.1-9.2 10.4 0 8.4 9.9 13.3 27.1 13.5 5.1.1 10.6-.5 13.7-1.4z"/><path d="M448.5 938.6c-20.2-1.8-28.4-3.1-45.5-7.2-20.4-4.8-30.2-8.9-45.7-19-18.4-11.9-36.8-36.2-47-61.9-5.7-14.6-12-38.9-10.5-40.9 23.8-31.6 39-49 65.7-75.4 70.5-69.5 145.8-112.3 213-121.3 14.5-1.9 36.8-.7 49 2.6 24.7 6.7 44.9 19.8 58.2 37.5 10.3 13.7 19.9 37.8 22.8 57.2 1.3 8.8-4.3 44-10 62.8-1.5 4.7-3 9.9-3.5 11.5-11.5 40.2-39.2 86.4-65.3 108.5-6.3 5.4-25.8 19-27.1 19-.3 0-4.2 1.8-8.8 4-14.5 7.1-42.5 16.1-58.8 18.9-26.4 4.5-60.7 6-86.5 3.7zM585 871.5c16.5-2.5 33.5-9.8 45.7-19.5 8.3-6.6 19.5-20.2 24.4-29.7 2.3-4.4 3.1-6.5 1.8-4.8-4.3 5.5-15.4 16.7-20.2 20.2-9.6 7-19.9 11.1-34.7 13.7-21.7 3.7-45.1-3.4-61.9-18.9-21.2-19.7-30-45.6-24.5-72.3 4.6-22.6 20.2-44 38.4-52.9 14-6.7 24.4-9.3 38-9.3 23.7 0 47.3 11.6 60.6 29.9 2.4 3.3 4.7 6.1 4.9 6.1.3 0-.7-2.4-2.1-5.2-8.5-16.8-24.2-32.2-42.1-41.1-11.8-6-22.1-8.7-35.8-9.4-46.8-2.5-87.4 28.4-98.2 74.7-1.2 5.4-1.7 11.8-1.7 22.5-.1 12.8.3 16.2 2.3 23 7.3 25 17.8 41.2 35.6 54.7 10.5 8 17.9 11.7 30.3 15.3 15.6 4.5 25 5.2 39.2 3zm47.5-50.9c8.8-3.7 10.5-16.5 3-22.4-11-8.6-25.7 3.5-19.6 16.1 3.4 7.1 9.3 9.3 16.6 6.3zm-57.9-53.1c9-4.4 15.1-15.5 14.2-25.6-.6-6.4-6-15.2-11.6-19.1-13-9-32.1-3.8-38.8 10.6-3.1 6.7-3.3 16-.4 21.6 7.4 14.4 22.3 19.5 36.6 12.5zM1171.5 938.9c-28.4-2.1-49.7-6.2-72.6-13.9-52-17.6-84.7-49.3-111.6-108.4-10.5-23.2-19.7-54.6-23.2-79.1-3.4-24.3-3.5-26.1-1.2-35.8 7.5-30.8 22.8-55.2 44.2-70.3 10.3-7.3 20.7-12 34.7-15.7 11.2-3 12.6-3.1 31.2-3.1 16.1 0 21.6.4 31.4 2.3 17.3 3.3 37.4 9.4 50.8 15.5 2.9 1.3 7.6 3.4 10.3 4.6 31.5 14 66.4 36.4 102 65.5 4.4 3.6 9.7 7.9 11.7 9.6 5.9 4.8 47.8 46.7 54.5 54.4 10.4 12.1 26.9 32.1 29.3 35.6 1.3 1.9 3.7 4.8 5.3 6.6 2.7 2.9 2.9 3.6 2.4 8-.3 2.6-1.5 7.7-2.7 11.3-1.1 3.6-3.2 10.3-4.7 15-2.9 9.1-14 31.8-19.4 39.7-15.2 22.3-32.8 36-58.1 45.3-29 10.6-75.1 15.8-114.3 12.9zm-57.9-68c20.5-3.6 37.6-12.7 52.2-27.6 19-19.6 28.5-47.2 26.1-75.9-1.3-15.1-3.7-23.9-10-36.4-14.1-28.1-40.5-47.8-70.1-52.1-11.2-1.6-29.2-.7-39.3 2.1-16.7 4.7-27 10.7-40 23.6-9.7 9.5-15 16.8-19.2 26.2-2.9 6.7-2.5 6.5 4.2-3.1 8.8-12.5 26-23.5 43.5-27.8 7.1-1.7 10.5-2 20.5-1.6 14.1.6 22.2 2.5 32.2 7.8 20.1 10.6 34.6 28.9 40 50.4 2.5 10.2 2.2 28.6-.5 38.8-7.5 27.5-29.7 48.7-58.2 55.3-7.3 1.8-23.6 1.9-30.7.4-8.2-1.8-17.5-5.2-22.8-8.3-9.3-5.5-17.4-11.7-21.2-16.4-2.1-2.6-4.6-5.7-5.5-6.7-1-1.1-1.8-2.4-1.8-3 0-.5-.3-.7-.6-.3-.8.7 5.9 13.1 9.3 17.2 17.6 21.2 35.2 32.5 57.8 37.1 7.6 1.5 26.3 1.7 34.1.3zm7.1-50.4c2.1-.9 4.9-3.1 6.2-5 3-4.5 2.6-12.3-.9-16-6.8-7.2-19.4-4.6-22.2 4.6-2 6.8.5 12.9 6.7 16.2 3.8 2 5.5 2.1 10.2.2zm-58.3-52.9c15.7-7.7 19.1-28.7 6.6-41.3-17.4-17.7-47-3.9-44.7 20.8 1.7 18.6 20.8 28.9 38.1 20.5zM266.3 521.8c-8.2-13-18.1-35.4-23.6-53.3-4.6-14.8-10.1-38.6-12.4-53.5-2.5-16.5-2.5-50.2 0-62 7.7-35.4 28.1-52.2 58.3-48.1 19.1 2.7 44.4 14.1 70.7 32 26.8 18.3 69.1 56.5 80.4 72.6l2.1 3-9.6 8c-24 20.1-55.4 52-77.3 78.9-12.3 15.1-12.6 15.3-24.6 17.1-27.3 4.2-49.3 7.7-52.8 8.5-7.1 1.7-8.3 1.3-11.2-3.2zM1381.5 523c-8.8-1.5-23.9-4-33.5-5.5-9.6-1.5-18.7-3.3-20.2-4.1-1.5-.8-6.4-5.8-11-11.3-4.6-5.4-12.8-15.2-18.3-21.7-16.8-20.1-37.5-40.4-64.2-63.2l-6.3-5.4 5.8-6.6c13.4-15.7 44.1-43.9 64.5-59.4 39.1-29.6 74.9-44.4 99.6-40.9 20.5 2.8 34.5 18.4 40.8 45.4 2.4 10.1 2.7 13.1 2.7 31.7 0 16.3-.4 23.4-2.2 34.5-2.7 17.2-11.2 51.3-15.2 61-.4 1.1-1.4 3.6-2.1 5.5-5.3 14.8-16.8 38.3-20.1 41.3-2.4 2-.6 2.1-20.3-1.3z"/></svg>
